<?xml version="1.0" encoding="UTF-8"?>
<svg width="30px" height="30px" viewBox="0 0 30 30" version="1.1" xmlns="http://www.w3.org/2000/svg" xmlns:xlink="http://www.w3.org/1999/xlink">
    <title>9DD507FA-4E72-4203-BF87-7B59F4747EDD@1.5x</title>
    <g id="Contacto-(ok)" stroke="none" stroke-width="1" fill="none" fill-rule="evenodd">
        <g id="Contáctanos-02" transform="translate(-824.000000, -495.000000)" fill="#1C1C1C" fill-rule="nonzero">
            <g id="Group-7" transform="translate(684.000000, 495.000000)">
                <g id="Group" transform="translate(140.000000, 0.000000)">
                    <path d="M0,1.875 C0,0.839466094 0.839466094,0 1.875,0 L5.911875,0 C6.82840877,0.000421932236 7.61031354,0.663375673 7.760625,1.5675 L9.148125,9.883125 C9.28422999,10.6961674 8.87333723,11.5027347 8.135625,11.870625 L5.233125,13.32 C7.33614951,18.5316477 11.4683523,22.6638505 16.68,24.766875 L18.13125,21.864375 C18.4989245,21.1274132 19.3044629,20.7166571 20.116875,20.851875 L28.4325,22.239375 C29.3366243,22.3896865 29.9995781,23.1715912 30,24.088125 L30,28.125 C30,29.1605339 29.1605339,30 28.125,30 L24.375,30 C10.9125,30 0,19.0875 0,5.625 L0,1.875 Z" id="Path"></path>
                </g>
            </g>
        </g>
    </g>
</svg>