<?xml version="1.0" encoding="UTF-8"?>
<svg width="19px" height="19px" viewBox="0 0 19 19" version="1.1" xmlns="http://www.w3.org/2000/svg" xmlns:xlink="http://www.w3.org/1999/xlink">
    <title>345A01FD-20EE-4584-8D5F-309EC0B7FBAC@1.5x</title>
    <g id="Contacto-(ok)" stroke="none" stroke-width="1" fill="none" fill-rule="evenodd">
        <g id="Contáctanos-02" transform="translate(-751.000000, -959.000000)" fill="#FFFFFF" fill-rule="nonzero">
            <g id="Group-8" transform="translate(685.000000, 778.000000)">
                <g id="Group-2" transform="translate(66.000000, 176.000000)">
                    <g id="Group" transform="translate(0.000000, 5.000000)">
                        <path d="M5.42857143,8.14285714 C5.42857143,6.64379854 6.64379854,5.42857143 8.14285714,5.42857143 L16.2857143,5.42857143 C17.7847729,5.42857143 19,6.64379854 19,8.14285714 L19,16.2857143 C19,17.7847729 17.7847729,19 16.2857143,19 L8.14285714,19 C6.64379854,19 5.42857143,17.7847729 5.42857143,16.2857143 L5.42857143,8.14285714 Z" id="Path"></path>
                        <path d="M2.71428571,0 C1.21522711,0 0,1.21522711 0,2.71428571 L0,10.8571429 C0,12.3562015 1.21522711,13.5714286 2.71428571,13.5714286 L2.71428571,2.71428571 L13.5714286,2.71428571 C13.5714286,1.21522711 12.3562015,0 10.8571429,0 L2.71428571,0 Z" id="Path"></path>
                    </g>
                </g>
            </g>
        </g>
    </g>
</svg>