<?xml version="1.0" encoding="UTF-8"?>
<svg width="35px" height="30px" viewBox="0 0 35 30" version="1.1" xmlns="http://www.w3.org/2000/svg" xmlns:xlink="http://www.w3.org/1999/xlink">
    <title>8CF15429-4ECD-419F-8536-55B4BB1F4956@1.5x</title>
    <g id="Contacto-(ok)" stroke="none" stroke-width="1" fill="none" fill-rule="evenodd">
        <g id="Contáctanos-02" transform="translate(-400.000000, -778.000000)" fill="#1C1C1C" fill-rule="nonzero">
            <g id="Group-6" transform="translate(263.000000, 778.000000)">
                <g id="Group" transform="translate(137.000000, 0.000000)">
                    <path d="M12.8571429,26.7857143 C12.8571429,28.5609153 11.4180581,30 9.64285714,30 C7.86765616,30 6.42857143,28.5609153 6.42857143,26.7857143 C6.42857143,25.0105133 7.86765616,23.5714286 9.64285714,23.5714286 C11.4180581,23.5714286 12.8571429,25.0105133 12.8571429,26.7857143 Z M27.8571429,26.7857143 C27.8571429,28.5609153 26.4180581,30 24.6428571,30 C22.8676562,30 21.4285714,28.5609153 21.4285714,26.7857143 C21.4285714,25.0105133 22.8676562,23.5714286 24.6428571,23.5714286 C26.4180581,23.5714286 27.8571429,25.0105133 27.8571429,26.7857143 Z" id="Shape"></path>
                    <path d="M2.14285714,0 C0.959389822,0 0,0.959389822 0,2.14285714 L0,23.5714286 C0,24.7548959 0.959389822,25.7142857 2.14285714,25.7142857 L4.39285714,25.7142857 C4.89984907,23.21751 7.09512685,21.4232008 9.64285714,21.4232008 C12.1905874,21.4232008 14.3858652,23.21751 14.8928571,25.7142857 L17.1428571,25.7142857 C18.3263245,25.7142857 19.2857143,24.7548959 19.2857143,23.5714286 L19.2857143,2.14285714 C19.2857143,0.959389822 18.3263245,0 17.1428571,0 L2.14285714,0 Z M25.7142857,6.42857143 C24.5308184,6.42857143 23.5714286,7.38796125 23.5714286,8.57142857 L23.5714286,21.5357143 C24.9638437,21.2512578 26.4122276,21.5317368 27.5977981,22.315419 C28.7833686,23.0991012 29.6089577,24.3217569 29.8928571,25.7142857 L32.1428571,25.7142857 C33.3263245,25.7142857 34.2857143,24.7548959 34.2857143,23.5714286 L34.2857143,12.8571429 C34.2855929,12.2888683 34.0597487,11.743913 33.6578571,11.3421429 L29.3721429,7.05642857 C28.9703727,6.65453705 28.4254175,6.42857143 27.8571429,6.42857143 L25.7142857,6.42857143 Z" id="Shape"></path>
                </g>
            </g>
        </g>
    </g>
</svg>