<?xml version="1.0" encoding="UTF-8"?>
<svg width="25px" height="30px" viewBox="0 0 25 30" version="1.1" xmlns="http://www.w3.org/2000/svg" xmlns:xlink="http://www.w3.org/1999/xlink">
    <title>27352C1C-40CE-4B41-9BFD-A48785B84527@1.5x</title>
    <g id="Contacto-(ok)" stroke="none" stroke-width="1" fill="none" fill-rule="evenodd">
        <g id="Contáctanos-02" transform="translate(-828.000000, -778.000000)" fill="#FFFFFF" fill-rule="nonzero">
            <g id="Group-8" transform="translate(685.000000, 778.000000)">
                <g id="Group" transform="translate(143.000000, 0.000000)">
                    <path d="M3.63987292,3.63961031 C8.49268666,-1.21320344 16.3606523,-1.21320344 21.213466,3.63961031 C26.0662798,8.49242405 26.0662798,16.3603897 21.213466,21.2132034 L12.4266695,30 L3.63987292,21.2132034 C1.30931423,18.8828825 -1.77635684e-15,15.7221464 -1.77635684e-15,12.4264069 C-1.77635684e-15,9.13066731 1.30931423,5.9699312 3.63987292,3.63961031 Z M12.4266695,15.9766277 C14.3874023,15.9766277 15.9768903,14.3871397 15.9768903,12.4264069 C15.9768903,10.465674 14.3874023,8.87618604 12.4266695,8.87618604 C10.4659367,8.87618604 8.87644865,10.465674 8.87644865,12.4264069 C8.87644865,14.3871397 10.4659367,15.9766277 12.4266695,15.9766277 Z" id="Shape"></path>
                </g>
            </g>
        </g>
    </g>
</svg>