<?xml version="1.0" encoding="UTF-8"?>
<svg width="24px" height="25px" viewBox="0 0 24 25" version="1.1" xmlns="http://www.w3.org/2000/svg" xmlns:xlink="http://www.w3.org/1999/xlink">
    <title>B5C49BD0-5C4F-4FD0-A545-F98E3770A6E6</title>
    <g id="Contacto-(ok)" stroke="none" stroke-width="1" fill="none" fill-rule="evenodd">
        <g id="Contáctanos-02" transform="translate(-1036.000000, -1937.000000)">
            <g id="Group-5" transform="translate(0.000000, 1900.000000)">
                <g id="Group-14" transform="translate(711.000000, 36.000000)">
                    <g id="Group-13" transform="translate(280.000000, 0.000000)">
                        <g id="Facebook" transform="translate(46.000000, 2.000000)">
                            <rect id="Rectangle" stroke="#FFFFFF" x="0" y="0" width="22" height="22" rx="4"></rect>
                            <g id="jam:facebook" transform="translate(0.000000, 1.692308)">
                                <rect id="ViewBox" x="0" y="0" width="22" height="22"></rect>
                                <path d="M8.29216667,5.37625 L8.29216667,7.89525 L6.446,7.89525 L6.446,10.97525 L8.29216667,10.97525 L8.29216667,20.1290833 L12.0816667,20.1290833 L12.0816667,10.9761667 L14.6254167,10.9761667 C14.6254167,10.9761667 14.86375,9.49941667 14.97925,7.88425 L12.09725,7.88425 L12.09725,5.77775 C12.09725,5.46333333 12.50975,5.03983333 12.9185833,5.03983333 L14.98475,5.03983333 L14.98475,1.83333333 L12.1760833,1.83333333 C8.19775,1.83333333 8.29216667,4.91608333 8.29216667,5.37625 Z" id="Path" fill="#FFFFFF" fill-rule="nonzero"></path>
                            </g>
                        </g>
                    </g>
                </g>
            </g>
        </g>
    </g>
</svg>