<?xml version="1.0" encoding="UTF-8"?>
<svg width="40px" height="40px" viewBox="0 0 40 40" version="1.1" xmlns="http://www.w3.org/2000/svg" xmlns:xlink="http://www.w3.org/1999/xlink">
    <title>C5DE9C0D-5D9B-48FE-8C65-5CEC9BF113B0</title>
    <g id="Contacto-(ok)" stroke="none" stroke-width="1" fill="none" fill-rule="evenodd">
        <g id="Contáctanos-02" transform="translate(-598.000000, -1541.000000)">
            <g id="iconoir:headset-help" transform="translate(598.000000, 1541.000000)">
                <rect id="ViewBox" x="0" y="0" width="40" height="40"></rect>
                <g id="Group" transform="translate(3.333333, 5.000000)" stroke="#FCB300" stroke-width="2.5">
                    <path d="M30,13.3333333 C30,5.96953667 24.0304633,0 16.6666667,0 C9.30287,0 3.33333333,5.96953667 3.33333333,13.3333333" id="Path" stroke-linecap="round" stroke-linejoin="round"></path>
                    <path d="M0,20.73 L0,17.6033333 C0.000231566742,16.0739171 1.04123462,14.7408834 2.525,14.37 L5.425,13.6433333 C5.72359413,13.5689689 6.03979838,13.6362156 6.28229025,13.8256522 C6.52478211,14.0150888 6.6665561,14.3056183 6.66666816,14.6133333 L6.66666816,23.7183333 C6.66719842,24.0267156 6.52541861,24.318094 6.28243517,24.5079859 C6.03945172,24.6978778 5.72244676,24.7650402 5.42333333,24.69 L2.52333333,23.965 C1.04022979,23.5934697 0,22.260598 0,20.7316667 L0,20.73 Z M33.3333333,20.73 L33.3333333,17.6033333 C33.3331018,16.0739171 32.2920987,14.7408834 30.8083333,14.37 L27.9083333,13.6433333 C27.6097392,13.5689689 27.293535,13.6362156 27.0510431,13.8256522 C26.8085512,14.0150888 26.6667772,14.3056183 26.6666658,14.6133333 L26.6666658,23.7183333 C26.6662639,24.0263409 26.8078215,24.3173492 27.0503861,24.5071682 C27.2929506,24.6969872 27.6094552,24.7644355 27.9083333,24.69 L30.8083333,23.965 C32.2920987,23.5941166 33.3331018,22.2610829 33.3333333,20.7316667 L33.3333333,20.73 Z M30,25 L30,25.8333333 C30,27.6742825 28.5076158,29.1666667 26.6666667,29.1666667 L20.8333333,29.1666667" id="Shape"></path>
                    <path d="M19.1666667,31.6666667 L14.1666667,31.6666667 C12.7859548,31.6666667 11.6666667,30.5473785 11.6666667,29.1666667 C11.6666667,27.7859548 12.7859548,26.6666667 14.1666667,26.6666667 L19.1666667,26.6666667 C20.5473785,26.6666667 21.6666667,27.7859548 21.6666667,29.1666667 C21.6666667,30.5473785 20.5473785,31.6666667 19.1666667,31.6666667 Z" id="Path"></path>
                </g>
            </g>
        </g>
    </g>
</svg>