<?xml version="1.0" encoding="UTF-8"?>
<svg width="30px" height="25px" viewBox="0 0 30 25" version="1.1" xmlns="http://www.w3.org/2000/svg" xmlns:xlink="http://www.w3.org/1999/xlink">
    <title>44A5DF7C-F322-4A8D-9B81-1C0AAFDF0039@1.5x</title>
    <g id="Contacto-(ok)" stroke="none" stroke-width="1" fill="none" fill-rule="evenodd">
        <g id="Contáctanos-02" transform="translate(-1248.000000, -778.000000)" fill="#1C1C1C" fill-rule="nonzero">
            <g id="Group-10" transform="translate(1108.000000, 778.000000)">
                <g id="Group" transform="translate(140.000000, 0.000000)">
                    <path d="M20.0000006,5 C20.0000006,7.76142341 17.7614241,10 15.0000006,10 C12.2385768,10 10.0000006,7.76142341 10.0000006,5 C10.0000006,2.23857612 12.2385768,0 15.0000006,0 C17.7614241,0 20.0000006,2.23857612 20.0000006,5 Z M28.3333334,8.33333298 C28.3333334,10.1742821 26.8409493,11.6666662 25.0000001,11.6666662 C23.159051,11.6666662 21.6666669,10.1742821 21.6666669,8.33333298 C21.6666669,6.49238387 23.159051,4.99999975 25.0000001,4.99999975 C26.8409493,4.99999975 28.3333334,6.49238387 28.3333334,8.33333298 L28.3333334,8.33333298 Z M21.6666669,19.9999993 C21.6666669,16.3181011 18.6818987,13.3333328 15.0000004,13.3333328 C11.3181022,13.3333328 8.33333397,16.3181011 8.33333397,19.9999993 L8.33333397,24.9999992 L21.6666669,24.9999992 L21.6666669,19.9999993 Z M8.33333397,8.33333298 C8.33333397,10.1742821 6.84094985,11.6666662 5.00000074,11.6666662 C3.15905163,11.6666662 1.6666675,10.1742821 1.6666675,8.33333298 C1.6666675,6.49238387 3.15905163,4.99999975 5.00000074,4.99999975 C6.84094985,4.99999975 8.33333397,6.49238387 8.33333397,8.33333298 L8.33333397,8.33333298 Z M25.0000001,24.9999992 L25.0000001,19.9999993 C25.0024092,18.3054715 24.5721562,16.6383846 23.7500002,15.1566661 C25.2473572,14.7734758 26.8377588,15.1031033 28.0594724,16.0498499 C29.2811859,16.9965964 29.9973335,18.4543907 30,19.9999993 L30,24.9999992 L25.0000001,24.9999992 L25.0000001,24.9999992 Z M6.2500007,15.1566661 C5.42791364,16.6384121 4.99766534,18.3054808 5.00000044,19.9999993 L5.00000044,24.9999992 L4.4334379e-07,24.9999992 L4.4334379e-07,19.9999993 C-0.000650091451,18.4531915 0.714646908,16.9931721 1.93730667,16.0456923 C3.15996644,15.0982125 4.75231036,14.769964 6.2500007,15.1566661 L6.2500007,15.1566661 Z" id="Shape"></path>
                </g>
            </g>
        </g>
    </g>
</svg>