<?xml version="1.0" encoding="UTF-8"?>
<svg width="26px" height="26px" viewBox="0 0 26 26" version="1.1" xmlns="http://www.w3.org/2000/svg" xmlns:xlink="http://www.w3.org/1999/xlink">
    <title>D6DC970C-76FE-4CBB-BAAD-E0D0D098D447</title>
    <g id="Contacto-(ok)" stroke="none" stroke-width="1" fill="none" fill-rule="evenodd">
        <g id="Contáctanos-02" transform="translate(-991.000000, -1936.000000)">
            <g id="Group-5" transform="translate(0.000000, 1900.000000)">
                <g id="Group-14" transform="translate(711.000000, 36.000000)">
                    <g id="Instagram" transform="translate(280.000000, 0.000000)">
                        <rect id="ViewBox" x="0" y="0" width="26" height="26"></rect>
                        <path d="M13,7.79238281 C10.1181641,7.79238281 7.79238281,10.1181641 7.79238281,13 C7.79238281,15.8818359 10.1181641,18.2076172 13,18.2076172 C15.8818359,18.2076172 18.2076172,15.8818359 18.2076172,13 C18.2076172,10.1181641 15.8818359,7.79238281 13,7.79238281 Z M13,16.3845703 C11.1363281,16.3845703 9.61542969,14.8636719 9.61542969,13 C9.61542969,11.1363281 11.1363281,9.61542969 13,9.61542969 C14.8636719,9.61542969 16.3845703,11.1363281 16.3845703,13 C16.3845703,14.8636719 14.8636719,16.3845703 13,16.3845703 Z M18.4208984,6.36542873 C17.7480469,6.36542873 17.2046875,6.90878906 17.2046875,7.58164062 C17.2046875,8.25449219 17.7480469,8.79785156 18.4208984,8.79785156 C19.09375,8.79785156 19.6371103,8.25703125 19.6371103,7.58164062 C19.6375143,7.25895745 19.5095082,6.9493741 19.2813366,6.72120246 C19.053165,6.49303083 18.7435816,6.36502473 18.4208984,6.36542873 Z M23.1511719,13 C23.1511719,11.5984375 23.1638672,10.2095703 23.0851562,8.81054687 C23.0064453,7.18554687 22.6357422,5.74335937 21.4474609,4.55507812 C20.2566406,3.36425781 18.8169922,2.99609375 17.1919922,2.91738281 C15.7904297,2.83867187 14.4015625,2.85136719 13.0025391,2.85136719 C11.6009766,2.85136719 10.2121094,2.83867187 8.81308594,2.91738281 C7.18808594,2.99609375 5.74589844,3.36679687 4.55761719,4.55507812 C3.36679688,5.74589844 2.99863281,7.18554687 2.91992188,8.81054687 C2.84121094,10.2121094 2.85390625,11.6009766 2.85390625,13 C2.85390625,14.3990234 2.84121094,15.7904297 2.91992188,17.1894531 C2.99863281,18.8144531 3.36933594,20.2566406 4.55761719,21.4449219 C5.7484375,22.6357422 7.18808594,23.0039062 8.81308594,23.0826172 C10.2146484,23.1613281 11.6035156,23.1486328 13.0025391,23.1486328 C14.4041016,23.1486328 15.7929688,23.1613281 17.1919922,23.0826172 C18.8169922,23.0039062 20.2591797,22.6332031 21.4474609,21.4449219 C22.6382812,20.2541016 23.0064453,18.8144531 23.0851562,17.1894531 C23.1664063,15.7904297 23.1511719,14.4015625 23.1511719,13 Z M20.9167969,18.9871094 C20.7314453,19.4492187 20.5080078,19.7945312 20.15,20.15 C19.7919922,20.5080078 19.4492187,20.7314453 18.9871094,20.9167969 C17.6515625,21.4474609 14.4802734,21.328125 13,21.328125 C11.5197266,21.328125 8.34589844,21.4474609 7.01035156,20.9193359 C6.54824219,20.7339844 6.20292969,20.5105469 5.84746094,20.1525391 C5.48945313,19.7945312 5.26601563,19.4517578 5.08066406,18.9896484 C4.55253906,17.6515625 4.671875,14.4802734 4.671875,13 C4.671875,11.5197266 4.55253906,8.34589844 5.08066406,7.01035156 C5.26601563,6.54824219 5.48945313,6.20292969 5.84746094,5.84746094 C6.20546875,5.49199219 6.54824219,5.26601562 7.01035156,5.08066406 C8.34589844,4.55253906 11.5197266,4.671875 13,4.671875 C14.4802734,4.671875 17.6541016,4.55253906 18.9896484,5.08066406 C19.4517578,5.26601562 19.7970703,5.48945312 20.1525391,5.84746094 C20.5105469,6.20546875 20.7339844,6.54824219 20.9193359,7.01035156 C21.4474609,8.34589844 21.328125,11.5197266 21.328125,13 C21.328125,14.4802734 21.4474609,17.6515625 20.9167969,18.9871094 Z" id="Shape" fill="#FFFFFF" fill-rule="nonzero"></path>
                    </g>
                </g>
            </g>
        </g>
    </g>
</svg>