<?xml version="1.0" encoding="UTF-8"?>
<svg width="40px" height="40px" viewBox="0 0 40 40" version="1.1" xmlns="http://www.w3.org/2000/svg" xmlns:xlink="http://www.w3.org/1999/xlink">
    <title>4C3E7A19-ED8A-4E22-965A-E4EC40ED3F38</title>
    <g id="Contacto-(ok)" stroke="none" stroke-width="1" fill="none" fill-rule="evenodd">
        <g id="Contáctanos-02" transform="translate(-433.000000, -1541.000000)">
            <g id="nimbus:marketing" transform="translate(433.000000, 1541.000000)">
                <rect id="ViewBox" x="0" y="0" width="39.800995" height="39.800995"></rect>
                <path d="M35.4477612,5.2238806 C34.5793604,4.66207757 33.4884569,4.56883796 32.5373134,4.97512438 L17.1890547,11.0199005 C16.8256843,11.1677862 16.4370875,11.243816 16.0447761,11.2437811 L6.21890547,11.2437811 C4.50160215,11.2437811 3.10945274,12.6359305 3.10945274,14.3532338 L3.10945274,14.60199 L0,14.60199 L0,22.0646766 L3.10945274,22.0646766 L3.10945274,22.3880597 C3.14997851,24.0761503 4.53032859,25.423372 6.21890547,25.4228856 L9.95024876,33.3333333 C10.4658345,34.420353 11.5581248,35.1163256 12.761194,35.1243781 L14.3283582,35.1243781 C16.0359391,35.110717 17.41299,33.7225609 17.4129353,32.0149254 L17.4129353,25.721393 L32.5373134,31.7661692 C32.9093236,31.9142086 33.3060838,31.9901839 33.7064677,31.9900498 C34.3276365,31.9800306 34.9325419,31.7899175 35.4477612,31.4427861 C36.2778213,30.8823306 36.7871034,29.9563631 36.8159204,28.9552239 L36.8159204,7.78606965 C36.8112964,6.75839204 36.2992001,5.79937548 35.4477612,5.2238806 Z M14.3034826,14.3532338 L14.3034826,22.3880597 L6.21890547,22.3880597 L6.21890547,14.3532338 L14.3034826,14.3532338 Z M14.3034826,32.0149254 L12.7363184,32.0149254 L9.67661692,25.4228856 L14.3034826,25.4228856 L14.3034826,32.0149254 Z M18.3333333,22.761194 C18.0379821,22.6102577 17.7300126,22.4854052 17.4129353,22.3880597 L17.4129353,14.1791045 C17.7269768,14.1143092 18.034899,14.0227648 18.3333333,13.9054726 L33.7064677,7.78606965 L33.7064677,28.880597 L18.3333333,22.761194 Z M36.8905473,15.2238806 L36.8905473,21.4427861 C38.6078506,21.4427861 40,20.0506367 40,18.3333333 C40,16.61603 38.6078506,15.2238806 36.8905473,15.2238806 L36.8905473,15.2238806 Z" id="Shape" fill="#FCB300" fill-rule="nonzero"></path>
            </g>
        </g>
    </g>
</svg>