<?xml version="1.0" encoding="UTF-8"?>
<svg width="40px" height="40px" viewBox="0 0 40 40" version="1.1" xmlns="http://www.w3.org/2000/svg" xmlns:xlink="http://www.w3.org/1999/xlink">
    <title>C3FC9D9C-09AB-4078-BFF5-6511273AA0B2</title>
    <g id="Contacto-(ok)" stroke="none" stroke-width="1" fill="none" fill-rule="evenodd">
        <g id="Contáctanos-02" transform="translate(-263.000000, -1541.000000)">
            <g id="clarity:network-settings-line" transform="translate(263.000000, 1541.000000)">
                <rect id="ViewBox" x="0" y="0" width="40" height="40"></rect>
                <path d="M12.0555556,30.4888889 C13.0028327,30.2854981 13.7523957,29.5617821 13.9888889,28.6222222 C14.5888889,28.4666667 15.1666667,28.2666667 15.7555556,28.0555556 L15.7555556,26.7222222 C15.7601835,26.5316765 15.7825016,26.3419727 15.8222222,26.1555556 C15.1613286,26.422196 14.4862288,26.6521751 13.8,26.8444444 C13.3082543,25.8711085 12.2488116,25.3216789 11.1699339,25.4804857 C10.0910562,25.6392924 9.23486696,26.4706959 9.04444444,27.5444444 L8.54444444,27.5444444 C6.60056193,25.2878261 5.47331123,22.4423009 5.34444444,19.4666667 C6.83762681,17.3738719 8.72472003,15.5924559 10.9,14.2222222 C11.5602323,14.8976364 12.5470269,15.1389486 13.4444444,14.8444444 C14.7480966,16.9831309 16.4312458,18.8658481 18.4111111,20.4 C18.4836457,20.3066564 18.5615554,20.2176168 18.6444444,20.1333333 L19.7,19.1222222 C17.7611398,17.6760051 16.1199541,15.8688145 14.8666667,13.8 C15.1185223,13.4007081 15.2532609,12.9387472 15.2555556,12.4666667 L15.2555556,12.2222222 C19.3180063,10.8570495 23.7153271,10.8570495 27.7777778,12.2222222 C27.4781849,13.4992114 27.0500761,14.7425884 26.5,15.9333333 L28.4444444,15.9333333 C28.8571464,14.9528403 29.1951462,13.942555 29.4555556,12.9111111 C29.9333333,13.1222222 30.3888889,13.3666667 30.8555556,13.6222222 C31.4921997,15.0592587 31.8684184,16.5979931 31.9666667,18.1666667 C32.3856537,17.9322137 32.8536809,17.7990352 33.3333333,17.7777778 C33.5888604,17.7828368 33.8427236,17.8201696 34.0888889,17.8888889 C33.5424409,9.53826624 26.4873796,3.11644936 18.1223098,3.35542942 C9.75724002,3.59440948 3.08031376,10.4085329 3.01150254,18.7767327 C2.94269133,27.1449326 9.50665801,34.0679351 17.8666667,34.4444444 C17.5844532,33.7305837 17.5844532,32.936083 17.8666667,32.2222222 C15.8217166,32.1012337 13.8326347,31.507932 12.0555556,30.4888889 Z M18.6222222,5.55555556 C22.2299647,5.56100628 25.6815091,7.0282133 28.1888889,9.62222222 C28.1888889,9.9 28.1888889,10.1888889 28.1,10.4666667 C23.6371703,8.9958299 18.8137004,9.03879198 14.3777778,10.5888889 C14.0006208,10.2662116 13.5369821,10.0614379 13.0444444,10 C12.7470204,9.08165822 12.5204307,8.14186806 12.3666667,7.18888889 C14.2849104,6.1360482 16.4341274,5.57488497 18.6222222,5.55555556 L18.6222222,5.55555556 Z M10.7333333,8.17777778 C10.8770251,8.89800199 11.0587611,9.61011046 11.2777778,10.3111111 C10.5389097,10.7737552 10.0898197,11.583796 10.0888889,12.4555556 C10.0888889,12.4555556 10.0888889,12.5666667 10.0888889,12.6222222 C8.41004235,13.6785337 6.88461053,14.9609433 5.55555556,16.4333333 C6.17801458,13.1267479 8.02758664,10.1777521 10.7333333,8.17777778 L10.7333333,8.17777778 Z" id="Shape" fill="#FCB300" fill-rule="nonzero"></path>
                <path d="M27.7777778,23.5444284 C25.4229847,23.5690457 23.5333879,25.4968128 23.5558785,27.851627 C23.5783692,30.2064412 25.5044419,32.0977652 27.8592753,32.0773852 C30.2141087,32.0570052 32.1071582,30.1326285 32.0888889,27.7777778 C32.0524112,25.4246967 30.131133,23.5380807 27.7777778,23.5444284 L27.7777778,23.5444284 Z M27.7777778,30.3 C26.4136182,30.2755108 25.3234685,29.1573152 25.333631,27.7929737 C25.3437935,26.4286322 26.4504795,25.3268001 27.8148525,25.3226229 C29.1792255,25.3184694 30.2926184,26.4135238 30.3111362,27.7777778 C30.31411,28.4495579 30.0478099,29.0945294 29.571742,29.5685093 C29.0956741,30.0424892 28.4495382,30.3059517 27.7777778,30.3 L27.7777778,30.3 Z" id="Shape" fill="#FCB300" fill-rule="nonzero"></path>
                <path d="M37.9666667,26.8222222 C37.988966,26.2921299 37.6785346,25.8043092 37.1888889,25.6 L35.4555556,25.0888889 C35.3740741,24.8518519 35.2777778,24.6185185 35.1666667,24.3888889 L35.9666667,22.9111111 C36.2247044,22.4174936 36.1300073,21.8132357 35.7333333,21.4222222 L34.2444444,19.9555556 C33.8507707,19.562614 33.246812,19.4724709 32.7555556,19.7333333 L31.2666667,20.5222222 C31.0238483,20.4061994 30.7753911,20.3023666 30.5222222,20.2111111 L30,18.5666667 C29.8203671,18.0585703 29.3389099,17.7197671 28.8,17.722209 L26.6666667,17.722209 C26.1159647,17.7261481 25.6309013,18.0854544 25.4666667,18.6111111 L24.9777778,20.2 C24.7208725,20.2909793 24.4687025,20.394814 24.2222222,20.5111111 L22.7555556,19.7333333 C22.2694188,19.4751316 21.6721726,19.5604525 21.2777778,19.9444444 L19.7555556,21.4 C19.3535957,21.792855 19.2585896,22.4036084 19.5222222,22.9 L20.3,24.3222222 C20.1814815,24.5592593 20.0777778,24.8 19.9888889,25.0444444 L18.4222222,25.5555556 C17.8860439,25.7138651 17.5191294,26.2076143 17.5222028,26.7666667 L17.5222028,28.8444444 C17.5480992,29.3846352 17.9140857,29.8488131 18.4333333,30 L20.0666667,30.4888889 C20.1555556,30.7259259 20.2592593,30.962963 20.3777778,31.2 L19.5777778,32.7 C19.3113307,33.1940107 19.4017677,33.8044603 19.8,34.2 L21.2888889,35.6666667 C21.6825627,36.0596082 22.2865213,36.1497513 22.7777778,35.8888889 L24.3,35.0888889 C24.5296296,35.1925926 24.762963,35.2888889 25,35.3777778 L25.4888889,37.0111111 C25.6543572,37.5406697 26.1451926,37.9009159 26.7,37.9000017 L28.8111111,37.9000017 C29.3576976,37.8912905 29.8370317,37.5329099 30,37.0111111 L30.4888889,35.3777778 C30.7222222,35.3 30.9555556,35.2 31.1777778,35.1 L32.7111111,35.9111111 C33.1995867,36.1664529 33.7971129,36.0765993 34.1888889,35.6888889 L35.6777778,34.2222222 C36.0797377,33.8293672 36.1747437,33.2186139 35.9111111,32.7222222 L35.1,31.2333333 C35.2037037,31.0111111 35.2962963,30.7888889 35.3777778,30.5666667 L37.0444444,30.0777778 C37.5815642,29.9299611 37.9570553,29.4458943 37.9666667,28.8888889 L37.9666667,26.8222222 Z M36.1888889,28.4888889 L33.9666667,29.1333333 L33.8333333,29.6 C33.7101498,30.0203146 33.5425373,30.4263095 33.3333333,30.8111111 L33.1,31.2333333 L34.2111111,33.2222222 L33.2555556,34.1555556 L31.2333333,33.0444444 L30.8222222,33.2666667 C30.426445,33.4801344 30.0093423,33.6514444 29.5777778,33.7777778 L29.1111111,33.9111111 L28.4555556,36.1333333 L27.0888889,36.1333333 L26.4333333,33.9666667 L25.9666667,33.8333333 C25.5319376,33.7106695 25.1111531,33.5431004 24.7111111,33.3333333 L24.3,33.1111111 L22.2888889,34.2222222 L21.3333333,33.2777778 L22.4444444,31.2555556 L22.2,30.8333333 C21.972906,30.4361061 21.7903205,30.0150415 21.6555556,29.5777778 L21.5111111,29.1222222 L19.3444444,28.4777778 L19.3444444,27.1333333 L21.5,26.4888889 L21.6333333,26.0333333 C21.76672,25.5920229 21.9493509,25.1671265 22.1777778,24.7666667 L22.4222222,24.3333333 L21.3111111,22.4111111 L22.2777778,21.4777778 L24.2444444,22.5222222 L24.6666667,22.2888889 C25.0787921,22.0604256 25.5147318,21.8778525 25.9666667,21.7444444 L26.4222222,21.6111111 L27.0777778,19.4888889 L28.4444444,19.4888889 L29.0888889,21.6 L29.5444444,21.7333333 C29.9921341,21.8638718 30.4243034,22.0427005 30.8333333,22.2666667 L31.2555556,22.5 L33.2555556,21.4444444 L34.2111111,22.3888889 L33.1,24.3555556 L33.3333333,24.7777778 C33.5533251,25.1756857 33.7284715,25.5967823 33.8555556,26.0333333 L33.9888889,26.5 L36.1333333,27.1333333 L36.1888889,28.4888889 Z" id="Shape" fill="#FCB300" fill-rule="nonzero"></path>
                <polygon id="Path" points="0 0 40 0 40 40 0 40"></polygon>
            </g>
        </g>
    </g>
</svg>