<?xml version="1.0" encoding="UTF-8"?>
<svg width="26px" height="26px" viewBox="0 0 26 26" version="1.1" xmlns="http://www.w3.org/2000/svg" xmlns:xlink="http://www.w3.org/1999/xlink">
    <title>00588A7E-357B-4A35-A986-CDB839288518</title>
    <g id="Contacto-(ok)" stroke="none" stroke-width="1" fill="none" fill-rule="evenodd">
        <g id="Contáctanos-02" transform="translate(-1079.000000, -1936.000000)">
            <g id="Group-5" transform="translate(0.000000, 1900.000000)">
                <g id="Group-14" transform="translate(711.000000, 36.000000)">
                    <g id="Group-13" transform="translate(280.000000, 0.000000)">
                        <g id="Tiktok" transform="translate(88.000000, 0.000000)">
                            <rect id="ViewBox" x="0" y="0" width="26" height="26"></rect>
                            <path d="M17.9833333,6.305 C17.9833333,6.305 18.5358333,6.84666667 17.9833333,6.305 C17.2427928,5.45959049 16.8346907,4.373885 16.835,3.25 L13.4875,3.25 L13.4875,16.6833333 C13.4338379,18.1942534 12.1935393,19.3914527 10.6816667,19.3916667 C9.14333333,19.3916667 7.865,18.135 7.865,16.575 C7.865,14.7116667 9.66333333,13.3141667 11.5158333,13.8883333 L11.5158333,10.465 C7.77833333,9.96666667 4.50666667,12.87 4.50666667,16.575 C4.50666667,20.1825 7.49666667,22.75 10.6708333,22.75 C14.0725,22.75 16.835,19.9875 16.835,16.575 L16.835,9.76083333 C18.1924147,10.7356708 19.8221438,11.2587001 21.4933333,11.2558333 L21.4933333,7.90833333 C21.4933333,7.90833333 19.4566667,8.00583333 17.9833333,6.305 Z" id="Path" fill="#FFFFFF" fill-rule="nonzero"></path>
                        </g>
                    </g>
                </g>
            </g>
        </g>
    </g>
</svg>