<?xml version="1.0" encoding="UTF-8"?>
<svg width="28px" height="28px" viewBox="0 0 28 28" version="1.1" xmlns="http://www.w3.org/2000/svg" xmlns:xlink="http://www.w3.org/1999/xlink">
    <title>849EBB9D-405B-4D7E-9B4B-3409F3757AFF@1.5x</title>
    <g id="Contacto-(ok)" stroke="none" stroke-width="1" fill="none" fill-rule="evenodd">
        <g id="Contáctanos-02" transform="translate(-1249.000000, -495.000000)" fill="#FFFFFF" fill-rule="nonzero">
            <g id="Group-9" transform="translate(1108.000000, 495.000000)">
                <g id="Group" transform="translate(141.000000, 0.000000)">
                    <path d="M21.7245,8.75 L27.48725,2.98725 C28.1504514,2.30058695 28.1409667,1.20910164 27.4659325,0.534067493 C26.7908984,-0.140966654 25.6994131,-0.150451367 25.01275,0.51275 L19.25,6.2755 L19.25,3.5 C19.25,2.53350169 18.4664983,1.75 17.5,1.75 C16.5335017,1.75 15.75,2.53350169 15.75,3.5 L15.75,10.50525 C15.75,11.2116652 16.1764772,11.8481934 16.82975,12.117 C17.0422165,12.2050774 17.2700009,12.2502774 17.5,12.2500013 L24.5,12.2500013 C25.4664983,12.2500013 26.25,11.4664983 26.25,10.5 C26.25,9.53350169 25.4664983,8.75 24.5,8.75 L21.7245,8.75 L21.7245,8.75 Z" id="Path"></path>
                    <path d="M0,1.75 C0,0.783501688 0.783501688,0 1.75,0 L5.51775,0 C6.37318152,0.00039380342 7.10295931,0.619150628 7.24325,1.463 L8.53825,9.22425 C8.66528132,9.98308962 8.28178141,10.7358857 7.59325,11.07925 L4.88425,12.432 C6.84707288,17.2962045 10.7037955,21.1529271 15.568,23.11575 L16.9225,20.40675 C17.2656629,19.718919 18.0174987,19.3355466 18.77575,19.46175 L26.537,20.75675 C27.3808494,20.8970407 27.9996062,21.6268185 28,22.48225 L28,26.25 C28,27.2164983 27.2164983,28 26.25,28 L22.75,28 C10.185,28 0,17.815 0,5.25 L0,1.75 Z" id="Path"></path>
                </g>
            </g>
        </g>
    </g>
</svg>