<?xml version="1.0" encoding="UTF-8"?>
<svg width="26px" height="26px" viewBox="0 0 26 26" version="1.1" xmlns="http://www.w3.org/2000/svg" xmlns:xlink="http://www.w3.org/1999/xlink">
    <title>0D4A5B07-BAB2-4814-9122-36A0A53FCDC0</title>
    <g id="Contacto-(ok)" stroke="none" stroke-width="1" fill="none" fill-rule="evenodd">
        <g id="Contáctanos-02" transform="translate(-1125.000000, -1937.000000)">
            <g id="Group-5" transform="translate(0.000000, 1900.000000)">
                <g id="Group-14" transform="translate(711.000000, 36.000000)">
                    <g id="Group-13" transform="translate(280.000000, 0.000000)">
                        <g id="Youtube" transform="translate(134.000000, 1.000000)">
                            <rect id="ViewBox" x="0" y="0" width="26" height="26"></rect>
                            <g id="Group" transform="translate(2.166667, 5.308333)" stroke="#FFFFFF" stroke-width="1.5">
                                <polygon id="Path" fill="#FFFFFF" fill-rule="nonzero" stroke-linecap="round" stroke-linejoin="round" points="13 7.69166667 9.20833333 9.85833333 9.20833333 5.525"></polygon>
                                <path d="M0,8.45758333 L0,6.92466667 C0,3.78841667 0,2.21975 0.980416667,1.21116667 C1.96191667,0.2015 3.50675,0.158166667 6.59533333,0.0704166667 C8.05783333,0.02925 9.55283333,-1.92438658e-15 10.8333333,-1.92438658e-15 C12.11275,-1.92438658e-15 13.60775,0.02925 15.0713333,0.0704166667 C18.1599167,0.158166667 19.70475,0.2015 20.6851667,1.21116667 C21.6666667,2.21975 21.6666667,3.7895 21.6666667,6.92466667 L21.6666667,8.45758333 C21.6666667,11.5949167 21.6666667,13.1625 20.68625,14.1721667 C19.70475,15.18075 18.161,15.2251667 15.0713333,15.3118333 C13.6088333,15.3540833 12.1138333,15.3833333 10.8333333,15.3833333 C9.42040411,15.379088 8.00760165,15.3552524 6.59533333,15.3118333 C3.50675,15.2251667 1.96191667,15.1818333 0.980416667,14.1721667 C0,13.1625 0,11.5938333 0,8.45866667 L0,8.45758333 Z" id="Path"></path>
                            </g>
                        </g>
                    </g>
                </g>
            </g>
        </g>
    </g>
</svg>